HIERARCHY
ROOT Hips
{
	OFFSET	0.00	0.00	0.00
	CHANNELS 6 Xposition Yposition Zposition Zrotation Xrotation Yrotation
	JOINT LeftUpLeg
	{
		OFFSET	 0.126116	-0.014019	-0.065224
		CHANNELS 3 Zrotation Xrotation Yrotation
		JOINT LeftLeg
		{
			OFFSET	 0.000000	 0.000000	 0.569914
			CHANNELS 3 Zrotation Xrotation Yrotation
			JOINT LeftFoot
			{
				OFFSET	 0.000000	 0.000000	 0.544423
				CHANNELS 3 Zrotation Xrotation Yrotation
				JOINT LeftToeBase
				{
					OFFSET	 0.000000	 0.000000	 0.207117
					CHANNELS 3 Zrotation Xrotation Yrotation
					End Site
					{
						OFFSET	 0.000000	 0.000000	 0.207117
					}
				}
			}
		}
	}
	JOINT RightUpLeg
	{
		OFFSET	-0.124023	-0.008373	-0.065224
		CHANNELS 3 Zrotation Xrotation Yrotation
		JOINT RightLeg
		{
			OFFSET	 0.000000	 0.000000	 0.570047
			CHANNELS 3 Zrotation Xrotation Yrotation
			JOINT RightFoot
			{
				OFFSET	 0.000000	 0.000000	 0.544354
				CHANNELS 3 Zrotation Xrotation Yrotation
				JOINT RightToeBase
				{
					OFFSET	 0.000000	 0.000000	 0.207540
					CHANNELS 3 Zrotation Xrotation Yrotation
					End Site
					{
						OFFSET	 0.000000	 0.000000	 0.207540
					}
				}
			}
		}
	}
	JOINT Spine
	{
		OFFSET	 0.000184	-0.007763	 0.117403
		CHANNELS 3 Zrotation Xrotation Yrotation
		JOINT Spine1
		{
			OFFSET	 0.000000	 0.000000	 0.137269
			CHANNELS 3 Zrotation Xrotation Yrotation
			JOINT Spine2
			{
				OFFSET	 0.000000	 0.000000	 0.156879
				CHANNELS 3 Zrotation Xrotation Yrotation
				JOINT LeftShoulder
				{
					OFFSET	 0.080501	-0.002496	 0.160144
					CHANNELS 3 Zrotation Xrotation Yrotation
					JOINT LeftArm
					{
						OFFSET	 0.000000	 0.000000	 0.164363
						CHANNELS 3 Zrotation Xrotation Yrotation
						JOINT LeftForeArm
						{
							OFFSET	 0.000000	 0.000000	 0.364576
							CHANNELS 3 Zrotation Xrotation Yrotation
							JOINT LeftHand
							{
								OFFSET	 0.000000	 0.000000	 0.360812
								CHANNELS 3 Zrotation Xrotation Yrotation
								JOINT LeftHandIndex1
								{
									OFFSET	 0.000000	 0.000000	 0.086006
									CHANNELS 3 Zrotation Xrotation Yrotation
									JOINT LeftHandIndex2
									{
										OFFSET	 0.000000	 0.000000	 0.047236
										CHANNELS 3 Zrotation Xrotation Yrotation
										JOINT LeftHandIndex3
										{
											OFFSET	-0.004284	-0.000551	 0.038166
											CHANNELS 3 Zrotation Xrotation Yrotation
											End Site
											{
												OFFSET	-0.004284	-0.000551	 0.038166
											}
										}
									}
								}
							}
						}
					}
				}
				JOINT Neck
				{
					OFFSET	 0.000000	 0.000000	 0.176489
					CHANNELS 3 Zrotation Xrotation Yrotation
					JOINT Head
					{
						OFFSET	 0.000000	-0.001747	 0.077940
						CHANNELS 3 Zrotation Xrotation Yrotation
						End Site
						{
							OFFSET	 0.000000	-0.001747	 0.077940
						}
					}
				}
				JOINT RightShoulder
				{
					OFFSET	-0.080363	 0.000306	 0.159706
					CHANNELS 3 Zrotation Xrotation Yrotation
					JOINT RightArm
					{
						OFFSET	 0.000000	 0.000000	 0.164196
						CHANNELS 3 Zrotation Xrotation Yrotation
						JOINT RightForeArm
						{
							OFFSET	 0.000000	 0.000000	 0.365611
							CHANNELS 3 Zrotation Xrotation Yrotation
							JOINT RightHand
							{
								OFFSET	 0.000000	 0.000000	 0.360648
								CHANNELS 3 Zrotation Xrotation Yrotation
								JOINT RightHandIndex1
								{
									OFFSET	 0.000000	 0.000000	 0.069977
									CHANNELS 3 Zrotation Xrotation Yrotation
									JOINT RightHandIndex2
									{
										OFFSET	 0.000000	 0.000000	 0.052305
										CHANNELS 3 Zrotation Xrotation Yrotation
										JOINT RightHandIndex3
										{
											OFFSET	 0.009002	-0.000782	 0.042196
											CHANNELS 3 Zrotation Xrotation Yrotation
											End Site
											{
												OFFSET	 0.009002	-0.000782	 0.042196
											}
										}
									}
								}
							}
						}
					}
				}
			}
		}
	}
}
MOTION
Frames:    7
Frame Time: 0.03333334
 0.000294	 0.019716	 1.271156	-0.003068	 0.003520	 0.173550	-11.573200	-1.835026	 179.594000	 1.464320	-12.653880	-0.740050	-4.289062	 71.871350	-2.119740	-2.385833	 28.452760	 0.000004	 11.416120	-1.937699	-179.826200	-1.456188	-12.255880	 0.702870	 4.120738	 71.490060	 2.099684	 2.384658	 28.388730	 0.000004	-4.285756	 2.692162	 0.297518	-2.161057	 3.771296	-0.804180	 6.542168	-4.633049	 1.417096	-91.776190	 78.527450	-180.000000	 66.349540	 43.090790	-52.564640	-7.536396	 5.332533	-13.466630	-30.192480	-10.637070	-4.425950	-2.635965	 4.993658	 6.788941	-5.165319	 0.784187	 3.516649	-5.225038	 0.466231	 0.424329	-0.000002	-3.783157	-0.089647	 6.363476	 4.566816	-0.254011	 89.782100	 78.203900	 180.000000	-64.723780	 42.188920	 56.223100	 7.560833	 4.773148	 10.970740	 30.436230	-11.425490	 9.067459	 6.112037	 4.509576	-0.364401	 4.968462	 1.518543	-9.347576	 5.168945	 0.703820	 2.021906
 0.000294	 0.019716	 1.271161	-0.003045	 0.003570	 0.173662	-11.579990	-1.834622	 179.594300	 1.464325	-12.653220	-0.740008	-4.288733	 71.870960	-2.120071	-2.385833	 28.452760	 0.000004	 11.422920	-1.937115	-179.826700	-1.456200	-12.254690	 0.702801	 4.120484	 71.489400	 2.099994	 2.384658	 28.388730	 0.000004	-4.284054	 2.685910	 0.296566	-2.160532	 3.792966	-0.802346	 6.540459	-4.661033	 1.418560	-91.776140	 78.527470	 180.000000	 66.356400	 43.095160	-52.557250	-7.535453	 5.333701	-13.469710	-30.194290	-10.659700	-4.426281	-2.635965	 4.993658	 6.788941	-5.165319	 0.784187	 3.516649	-5.225038	 0.466231	 0.424329	-0.000002	-3.783157	-0.089647	 6.360697	 4.553973	-0.253186	 89.782110	 78.203900	 180.000000	-64.707950	 42.173980	 56.235080	 7.526023	 4.769811	 10.981180	 30.423970	-11.463820	 9.058228	 6.112037	 4.509576	-0.364401	 4.968462	 1.518543	-9.347576	 5.168945	 0.703820	 2.021906
 0.000296	 0.019716	 1.271197	-0.002852	 0.003924	 0.174237	-11.622460	-1.831697	 179.596700	 1.464396	-12.647990	-0.739692	-4.286438	 71.867810	-2.122367	-2.385833	 28.452760	 0.000004	 11.465310	-1.933386	-179.829900	-1.456294	-12.247070	 0.702349	 4.118798	 71.485020	 2.101947	 2.384658	 28.388730	 0.000004	-4.269456	 2.646850	 0.290403	-2.155254	 3.928220	-0.790417	 6.523727	-4.836201	 1.426524	-91.776180	 78.527470	 180.000000	 66.396480	 43.123880	-52.508000	-7.529627	 5.340973	-13.488530	-30.206380	-10.813290	-4.428534	-2.635965	 4.993658	 6.788941	-5.165319	 0.784187	 3.516649	-5.225038	 0.466231	 0.424329	-0.000002	-3.783157	-0.089647	 6.337281	 4.474338	-0.247836	 89.782140	 78.203870	 180.000000	-64.588660	 42.074470	 56.372910	 7.315774	 4.716621	 10.970370	 30.347720	-11.715330	 9.000452	 6.112037	 4.509576	-0.364401	 4.968462	 1.518543	-9.347576	 5.168945	 0.703820	 2.021906
 0.000297	 0.019717	 1.271242	-0.002655	 0.004284	 0.174539	-11.665830	-1.828419	 179.599300	 1.464473	-12.641970	-0.739327	-4.284039	 71.864290	-2.124768	-2.385833	 28.452760	 0.000004	 11.508650	-1.929841	-179.832900	-1.456387	-12.239910	 0.701924	 4.117192	 71.480830	 2.103886	 2.384658	 28.388730	 0.000004	-4.247522	 2.607095	 0.283816	-2.146337	 4.065877	-0.777017	 6.495895	-5.015191	 1.432226	-91.776120	 78.527420	 180.000000	 66.432600	 43.155120	-52.453370	-7.522752	 5.347226	-13.504660	-30.220440	-10.991090	-4.431200	-2.635965	 4.993658	 6.788941	-5.165319	 0.784187	 3.516649	-5.225038	 0.466231	 0.424329	-0.000002	-3.783157	-0.089647	 6.302982	 4.394582	-0.242094	 89.782140	 78.203900	 180.000000	-64.534240	 41.806480	 56.717920	 6.989918	 4.574492	 10.814830	 30.400750	-12.132890	 8.871223	 6.112037	 4.509576	-0.364401	 4.968462	 1.518543	-9.347576	 5.168945	 0.703820	 2.021906
 0.000297	 0.019717	 1.271292	-0.002456	 0.004632	 0.174425	-11.707780	-1.824694	 179.602200	 1.464568	-12.634810	-0.738897	-4.281413	 71.860170	-2.127340	-2.385833	 28.452760	 0.000004	 11.550680	-1.926388	-179.835500	-1.456473	-12.233100	 0.701522	 4.115608	 71.476830	 2.105805	 2.384658	 28.388730	 0.000004	-4.219509	 2.568751	 0.277303	-2.134300	 4.198656	-0.762775	 6.458528	-5.188595	 1.435235	-91.776160	 78.527420	 180.000000	 66.462330	 43.186990	-52.395290	-7.515344	 5.352196	-13.517500	-30.235610	-11.183590	-4.434117	-2.635965	 4.993658	 6.788941	-5.165319	 0.784187	 3.516649	-5.225038	 0.466231	 0.424329	-0.000002	-3.783157	-0.089647	 6.259614	 4.318789	-0.236274	 89.782160	 78.203900	 179.999900	-64.448010	 41.498420	 57.189850	 6.659483	 4.374372	 10.519670	 30.480220	-12.587910	 8.730788	 6.112037	 4.509576	-0.364401	 4.968462	 1.518543	-9.347576	 5.168945	 0.703820	 2.021906
 0.000297	 0.019718	 1.271352	-0.002235	 0.005004	 0.174003	-11.751060	-1.820628	 179.605400	 1.464671	-12.626820	-0.738415	-4.278645	 71.855660	-2.130043	-2.385833	 28.452760	 0.000004	 11.594060	-1.923213	-179.837900	-1.456546	-12.226970	 0.701161	 4.114119	 71.473190	 2.107679	 2.384658	 28.388730	 0.000004	-4.183689	 2.529428	 0.270374	-2.118365	 4.334769	-0.746930	 6.409273	-5.367076	 1.435739	-91.776260	 78.527420	-180.000000	 66.486300	 43.221120	-52.328120	-7.506701	 5.356584	-13.528890	-30.252950	-11.402680	-4.437500	-2.635965	 4.993658	 6.788941	-5.165319	 0.784187	 3.516649	-5.225038	 0.466231	 0.424329	-0.000002	-3.783157	-0.089647	 6.204620	 4.242313	-0.230045	 89.782070	 78.203870	 180.000000	-64.282070	 41.151780	 57.781700	 6.279854	 4.119915	 10.107600	 30.569350	-13.092030	 8.579504	 6.112037	 4.509576	-0.364401	 4.968462	 1.518543	-9.347576	 5.168945	 0.703820	 2.021906
 0.000296	 0.019719	 1.271422	-0.001998	 0.005389	 0.173184	-11.796260	-1.815928	 179.609100	 1.464797	-12.617370	-0.737843	-4.275527	 71.850320	-2.133046	-2.385833	 28.452760	 0.000004	 11.639430	-1.919990	-179.840100	-1.456622	-12.220900	 0.700802	 4.112549	 71.469550	 2.109652	 2.384658	 28.388730	 0.000004	-4.138725	 2.488625	 0.262970	-2.097873	 4.476013	-0.729209	 6.346148	-5.553074	 1.433367	-91.776180	 78.527490	 180.000000	 66.503670	 43.257470	-52.249170	-7.496912	 5.360261	-13.538390	-30.272830	-11.654050	-4.441489	-2.635965	 4.993658	 6.788941	-5.165319	 0.784187	 3.516649	-5.225038	 0.466231	 0.424329	-0.000002	-3.783157	-0.089647	 6.135932	 4.164228	-0.223303	 89.782160	 78.203870	 179.999900	-63.990760	 40.740060	 58.451990	 5.802465	 3.843615	 9.670800	 30.673970	-13.666030	 8.409730	 6.112037	 4.509576	-0.364401	 4.968462	 1.518543	-9.347576	 5.168945	 0.703820	 2.021906
